<svg aria-hidden="true" style="width:0;height:0;position:absolute;overflow:hidden" xmlns="http://www.w3.org/2000/svg"><defs><symbol id="icon-logo" viewBox="0 0 222 32"><path fill="#656980" style="fill:var(--color1,#656980)" d="M19.226 25.468H9.389L7.67 31.03H.001L10.924 1.255h6.748l11.004 29.779h-7.71l-1.739-5.564zm-8.12-5.543h6.4l-3.209-10.33-3.191 10.33zm43.401 1.024c-.096 2.069-.655 3.904-1.677 5.5-1.024 1.581-2.462 2.81-4.316 3.682-1.841.873-3.947 1.308-6.321 1.308-3.913 0-6.993-1.274-9.244-3.825-2.251-2.549-3.375-6.148-3.375-10.799v-1.472c0-2.918.506-5.468 1.515-7.648 1.022-2.197 2.487-3.887 4.395-5.073C37.395 1.421 39.603.821 42.112.821c3.614 0 6.517.956 8.713 2.863 2.197 1.897 3.443 4.514 3.744 7.855H47.41c-.053-1.813-.512-3.115-1.37-3.906-.86-.789-2.17-1.186-3.927-1.186-1.786 0-3.093.668-3.925 2.005-.832 1.335-1.269 3.469-1.31 6.4v2.108c0 3.177.395 5.446 1.186 6.81.804 1.365 2.18 2.046 4.13 2.046 1.651 0 2.912-.388 3.785-1.167.875-.777 1.335-2.01 1.391-3.701h7.138zM80.666 6.795h-8.939V31.03h-7.179V6.797h-8.774V1.252h24.892v5.542zm10.696 24.236h-7.157V1.248h7.157v29.781zm16.546-8.1 5.931-21.679h8.017l-10.02 29.779h-7.857L94.04 1.248h7.957l5.911 21.681zm34.605-4.52h-11.29v7.098h13.335v5.521h-20.514V1.255h20.555v5.542h-13.376v6.278h11.29v5.335z"/><path fill="#fff" style="fill:var(--color2,#fff)" d="M148.215 31.01V1.231h7.834c3.204 0 5.623.655 7.26 1.963 1.651 1.297 2.475 3.185 2.475 5.666 0 1.801-.457 3.294-1.37 4.48s-2.202 1.941-3.866 2.27a7.433 7.433 0 0 1 4.697 2.446l.007.008c1.254 1.378 1.882 2.959 1.882 4.745 0 2.539-.823 4.542-2.475 6.016-1.636 1.457-3.919 2.187-6.852 2.187h-9.591zm1.106-14.705v13.6h8.61c2.522 0 4.501-.619 5.931-1.86 1.446-1.254 2.167-2.987 2.167-5.195 0-1.882-.693-3.43-2.084-4.644-1.391-1.227-3.253-1.86-5.585-1.901h-9.039zm0-1.105h7.138c2.714 0 4.757-.518 6.135-1.555 1.376-1.05 2.065-2.671 2.065-4.866 0-4.228-2.788-6.374-8.365-6.443h-6.976V15.2zm45.26 3.149c0 2.577-.463 4.862-1.391 6.852-.913 1.978-2.223 3.511-3.925 4.602-1.707 1.077-3.669 1.617-5.89 1.617-3.356 0-6.069-1.195-8.141-3.58-2.074-2.387-3.11-5.604-3.11-9.653v-4.299c0-2.562.459-4.841 1.372-6.831.926-1.99 2.242-3.524 3.947-4.602 1.717-1.09 3.682-1.636 5.89-1.636 2.223 0 4.188.546 5.89 1.636 1.719 1.077 3.042 2.618 3.968 4.623.928 1.99 1.391 4.26 1.391 6.81v4.459zm-1.103-4.499c0-3.599-.915-6.483-2.741-8.651-1.828-2.182-4.297-3.273-7.403-3.273-3.07 0-5.517 1.084-7.343 3.251-1.828 2.155-2.741 5.094-2.741 8.815v4.356c0 2.374.41 4.474 1.227 6.3.832 1.813 2.012 3.211 3.539 4.194 1.527.981 3.313 1.472 5.359 1.472 3.108 0 5.568-1.084 7.381-3.251 1.813-2.17 2.72-5.129 2.72-8.877v-4.337zm15.87 1.105 9.613-13.724h1.391l-10.308 14.583 10.697 15.196h-1.37l-10.022-14.336-10.063 14.336h-1.329l10.697-15.196-10.308-14.583h1.391l9.613 13.724z"/></symbol><symbol id="icon-1" viewBox="0 0 33 32"><path d="M20.5 27.964H8.561a4.258 4.258 0 0 1-2.992-1.233 4.15 4.15 0 0 1-1.238-2.959V12.017a4.157 4.157 0 0 1 1.242-2.95l.001-.001A4.255 4.255 0 0 1 8.56 7.838h3.574c.178 0 .348.07.474.194a.656.656 0 0 1 0 .934.676.676 0 0 1-.474.194H8.561a2.913 2.913 0 0 0-2.041.841 2.846 2.846 0 0 0-.851 2.014V23.77c0 .759.304 1.486.846 2.024.525.52 1.247.842 2.044.845h11.94c.4 0 .782-.08 1.13-.225l-.019.007c.366-.152.679-.362.942-.622.263-.259.475-.568.623-.912l.007-.019c.146-.348.221-.721.221-1.098v-2.354a.663.663 0 0 1 .669-.662.67.67 0 0 1 .473.194.66.66 0 0 1 .196.468v2.354a4.154 4.154 0 0 1-1.242 2.963 4.254 4.254 0 0 1-2.996 1.228h-.005zm3.52-15.469a.676.676 0 0 1-.464-.184.656.656 0 0 1-.205-.449v-.001a2.752 2.752 0 0 0-.462-1.385l.006.01a2.76 2.76 0 0 0-.845-.839l-.011-.007a2.893 2.893 0 0 0-1.327-.449l-.011-.001a.678.678 0 0 1-.466-.212.655.655 0 0 1-.177-.449l.001-.027v.001-.014c0-.17.066-.324.173-.439a.659.659 0 0 1 .443-.208 4.199 4.199 0 0 1 2.104.671l-.016-.01c.511.321.932.737 1.249 1.227l.009.016c.388.583.633 1.291.669 2.053v.009l.001.027a.651.651 0 0 1-.178.448.66.66 0 0 1-.464.212h-.028z"/><path d="M17.823 18.563h-3.306a.671.671 0 0 1-.473-.194.652.652 0 0 1-.196-.467v-3.335c0-.179.072-.341.188-.46l6.692-6.611a.672.672 0 0 1 .937 0l1.165 1.15a.655.655 0 0 1 0 .926.67.67 0 0 1-.472.195h-.003a.676.676 0 0 1-.475-.195l-.683-.661-6.05 5.937v2.393h2.423l6.063-6.002-.683-.674a.655.655 0 0 1 0-.926.666.666 0 0 1 .473-.195h.003c.185 0 .353.075.475.195l1.151 1.137a.659.659 0 0 1 .198.469v.001c0 .184-.076.35-.197.468l-6.693 6.611a.71.71 0 0 1-.53.238h-.006z"/><path d="M24.622 11.9h-.008a.696.696 0 0 1-.475-.186l-1.151-1.15a.655.655 0 0 1 0-.926.666.666 0 0 1 .473-.195h.002c.185 0 .353.075.475.195l.683.674 2.409-2.393-2.409-2.38-2.423 2.38.683.674a.655.655 0 0 1 0 .926.666.666 0 0 1-.473.195h-.003a.673.673 0 0 1-.475-.196l-1.151-1.137a.623.623 0 0 1-.201-.457v-.016a.64.64 0 0 1 .2-.465l3.359-3.305a.666.666 0 0 1 .473-.195h.003c.185 0 .353.075.475.195l3.359 3.305a.667.667 0 0 1 0 .938l-3.359 3.332a.677.677 0 0 1-.468.185z"/></symbol><symbol id="icon-2" viewBox="0 0 32 32"><path d="M24.371 22.843H7.28a4.97 4.97 0 0 1-4.971-4.971V8.516a4.984 4.984 0 0 1 4.97-4.984H24.37a4.984 4.984 0 0 1 4.971 4.97v9.37a4.97 4.97 0 0 1-4.97 4.97zM7.28 4.861a3.642 3.642 0 0 0-3.642 3.642v9.369a3.64 3.64 0 0 0 3.641 3.641h17.09a3.642 3.642 0 0 0 3.642-3.641V8.569l.001-.066a3.642 3.642 0 0 0-3.642-3.642H7.279z"/><path d="M28.676 17.793H2.972a.678.678 0 0 1-.664-.664v-.001c0-.367.297-.664.664-.664h25.703a.665.665 0 0 1 0 1.33zM15.807 27.986a.664.664 0 0 1-.664-.664v-5.143a.664.664 0 1 1 1.328 0v5.143a.664.664 0 0 1-.664.664z"/><path d="M23.485 27.986H8.069a.664.664 0 1 1 0-1.328h15.416a.665.665 0 0 1 .001 1.328h-.001z"/></symbol><symbol id="icon-3" viewBox="0 0 32 32"><path d="M21.54 21.405h-.008a.663.663 0 0 1-.547-.289l-.001-.002a.663.663 0 0 1 .196-.927l.003-.002c2.608-1.696 4.308-4.596 4.308-7.893a9.385 9.385 0 1 0-14.498 7.871l.036.022a.663.663 0 1 1-.718 1.112l.002.001c-2.977-1.935-4.917-5.245-4.917-9.008 0-5.915 4.795-10.71 10.71-10.71s10.71 4.795 10.71 10.71c0 3.763-1.941 7.073-4.876 8.983l-.041.025a.614.614 0 0 1-.348.106h-.01.001z"/><path d="M21.54 26.641H10.671a.676.676 0 0 1-.663-.663v-5.236a.677.677 0 0 1 .662-.663h.001c.366 0 .663.297.663.663v4.573h9.544v-4.573c0-.366.297-.663.663-.663.363.007.655.3.663.662v5.236a.676.676 0 0 1-.662.663h-.001z"/><path d="M12.632 29.875a.663.663 0 0 1-.663-.663v-2.333a.676.676 0 0 1 .662-.663h.001c.366 0 .663.297.663.663v2.333a.663.663 0 0 1-.663.663zm6.946 0a.663.663 0 0 1-.663-.663v-2.333c0-.366.297-.663.663-.663.363.007.656.3.663.662v2.334a.663.663 0 0 1-.663.663zm-3.473-3.235a.663.663 0 0 1-.663-.663V15.373a.663.663 0 0 1 1.326 0v10.604a.663.663 0 0 1-.663.663z"/></symbol><symbol id="icon-4" viewBox="0 0 32 32"><path d="M9.769 27.807c-.5-.013-.958-.18-1.332-.455l.006.005a2.32 2.32 0 0 1-.83-2.667l-.005.016 1.67-5.143a1.004 1.004 0 0 0-.369-1.125l-.003-.002-4.374-3.181a2.334 2.334 0 0 1 1.323-4.215h5.435c.418 0 .776-.254.929-.617l.002-.007 1.67-5.156a2.285 2.285 0 0 1 2.186-1.631h.029-.001.026c1.02 0 1.885.666 2.183 1.588l.005.016 1.67 5.183c.141.401.514.684.953.689h5.422a2.333 2.333 0 0 1 1.332 4.21l-.006.005-4.374 3.181a1.005 1.005 0 0 0-.37 1.134l-.002-.007 1.683 5.156a2.331 2.331 0 0 1-.842 2.647l-.007.005c-.377.286-.854.459-1.372.459s-.995-.172-1.377-.463l-4.369-3.177a1.016 1.016 0 0 0-1.183.002l.003-.002-4.387 3.181a2.255 2.255 0 0 1-1.249.373l-.08-.001h.004zM5.845 12.404h-.028a.968.968 0 0 0-.925.683l-.002.007a.992.992 0 0 0 .355 1.124l.003.002 4.387 3.181a2.347 2.347 0 0 1 .843 2.667l.005-.017-1.67 5.103a.979.979 0 0 0 .355 1.124l.003.002a.962.962 0 0 0 1.182-.001l-.002.002 4.427-3.181a2.3 2.3 0 0 1 2.737.004l-.006-.004 4.347 3.221a.962.962 0 0 0 1.182-.001l-.002.002a.98.98 0 0 0 .356-1.133l.002.007-1.67-5.143a2.343 2.343 0 0 1 .841-2.646l.007-.005 4.375-3.181a1.008 1.008 0 0 0-.583-1.816h-5.422a2.335 2.335 0 0 1-2.182-1.587l-.005-.016-1.697-5.156a.97.97 0 0 0-.927-.69h-.029.001-.028a.968.968 0 0 0-.925.683l-.002.007-1.697 5.156a2.338 2.338 0 0 1-2.185 1.604H5.843z"/></symbol><symbol id="icon-5" viewBox="0 0 32 32"><path d="M15.802 28.401c-6.946-.041-12.56-5.681-12.56-12.633S8.856 3.177 15.798 3.135h.028a.665.665 0 0 1 0 1.33h-.025.001-.067c-6.243 0-11.303 5.061-11.303 11.303s5.061 11.303 11.303 11.303c3.148 0 5.995-1.287 8.045-3.363l.001-.001a.663.663 0 1 1 .944.929l-.001.001a12.473 12.473 0 0 1-8.921 3.763h-.001z"/><path d="M15.403 20.024h-.02a.622.622 0 0 1-.445-.186l-5.319-5.32a.664.664 0 0 1 0-.944.676.676 0 0 1 .944 0l4.84 4.853L26.241 7.589a.667.667 0 1 1 .944.944L15.882 19.837a.663.663 0 0 1-.462.186h-.018.001z"/></symbol><symbol id="icon-6" viewBox="0 0 32 32"><path d="M21.736 20.106h-5.554a.663.663 0 0 1 0-1.326h5.554a.663.663 0 0 1 0 1.326zm3.738-.411a.504.504 0 0 1-.238 0 .65.65 0 0 1-.382-.853l-.002.004 3.155-8.43a.663.663 0 0 1 .853-.382l-.005-.002a.69.69 0 0 1 .396.866l.001-.005-3.155 8.391a.69.69 0 0 1-.623.411zm-13.534.252h-.005a.65.65 0 0 1-.617-.446l-.001-.005L7.155 6.851H3.179a.663.663 0 0 1-.663-.663.677.677 0 0 1 .662-.663h4.454c.287.006.529.19.622.446l.002.005 4.361 13.096a.65.65 0 0 1-.406.834l-.005.001a.6.6 0 0 1-.265.04z"/><path d="M13.981 25.912a3.976 3.976 0 1 1 0-7.952 3.976 3.976 0 1 1 0 7.952zm0-6.628a2.651 2.651 0 0 0 0 5.302 2.651 2.651 0 0 0 0-5.302zm9.955 6.628a3.976 3.976 0 1 1 0-7.952 3.976 3.976 0 1 1 0 7.952zm0-6.628h-.033a2.651 2.651 0 0 0 0 5.302h.035-.002a2.651 2.651 0 0 0 0-5.302z"/></symbol><symbol id="icon-facebook" viewBox="0 0 32 32"><path d="M12.264 28.666h5.333v-10.68h4.805l.528-5.306h-5.333V10c0-.736.597-1.333 1.333-1.333h4V3.334h-4a6.666 6.666 0 0 0-6.666 6.667v2.68H9.598l-.528 5.306h3.194v10.68z"/></symbol><symbol id="icon-twitter" viewBox="0 0 40 32"><path d="M35.298 7.928c.026.335.026.666.026 1 0 10.18-7.75 21.911-21.911 21.911a21.756 21.756 0 0 1-11.825-3.458c.619.072 1.216.094 1.86.094h.04c3.608 0 6.927-1.238 9.555-3.313l-.033.025a7.72 7.72 0 0 1-7.188-5.286l-.016-.055a9.64 9.64 0 0 0 1.455.119 8.12 8.12 0 0 0 2.029-.262c-3.547-.735-6.174-3.834-6.174-7.546v-.012.001-.094a7.663 7.663 0 0 0 3.463.976l.015.001c-2.082-1.398-3.433-3.743-3.433-6.404v-.009a7.64 7.64 0 0 1 1.047-3.885C8.025 6.4 13.669 9.452 20.033 9.787l.054.002a8.466 8.466 0 0 1-.192-1.761V8.019A7.695 7.695 0 0 1 27.59.324H27.617a7.66 7.66 0 0 1 5.603 2.428l.004.004A15.166 15.166 0 0 0 38.177.858l-.068.038a7.726 7.726 0 0 1-3.35 4.223l-.035.019a15.414 15.414 0 0 0 4.531-1.232l-.098.039a16.673 16.673 0 0 1-3.814 3.951l-.045.032z"/></symbol><symbol id="icon-instargam" viewBox="0 0 32 32"><path d="M30.001.263H2.631A1.71 1.71 0 0 0 .92 1.974v27.368c0 .944.765 1.709 1.709 1.709h27.368c.944 0 1.71-.765 1.711-1.709V1.973c0-.944-.764-1.709-1.708-1.711zM10.053 26.498H5.484V11.805h4.569v14.693zM7.768 9.797a2.648 2.648 0 1 1 0-5.296 2.648 2.648 0 1 1 0 5.296zm19.39 16.701h-4.566v-7.146c0-1.704-.03-3.896-2.375-3.896-2.378 0-2.739 1.858-2.739 3.774v7.267h-4.561V11.806h4.379v2.008h.064c.606-1.155 2.099-2.373 4.317-2.373 4.627 0 5.48 3.042 5.48 7v8.057z"/></symbol><symbol id="icon-menu" viewBox="0 0 31 32"><path d="M9.143 10.857h13.714v1.714H9.143v-1.714zm0 4.286h13.714v1.714H9.143v-1.714zm0 4.286h13.714v1.714H9.143v-1.714z"/></symbol><symbol id="icon-cross" viewBox="0 0 31 32"><path d="m10.545 20.529 9.698-9.698 1.212 1.213-9.697 9.697-1.213-1.212z"/><path d="m11.757 10.831 9.698 9.698-1.212 1.212-9.697-9.697 1.211-1.213z"/></symbol><symbol id="icon-arrow-up" viewBox="0 0 32 32"><path d="m27.414 12.586-10-10a2 2 0 0 0-2.828 0l-10 10a2 2 0 1 0 2.828 2.828L14 8.828V28a2 2 0 1 0 4 0V8.828l6.586 6.586c.39.39.902.586 1.414.586s1.024-.195 1.414-.586a2 2 0 0 0 0-2.828z"/></symbol></defs></svg>