<svg aria-hidden="true" style="position: absolute; width: 0; height: 0; overflow: hidden;" version="1.1" xmlns="http://www.w3.org/2000/svg" xmlns:xlink="http://www.w3.org/1999/xlink">
<defs>
<symbol id="icon-logo" viewBox="0 0 222 32">
<path fill="#656980" style="fill: var(--color1, #656980)" d="M19.226 25.468h-9.837l-1.719 5.562h-7.669l10.923-29.775h6.748l11.004 29.779h-7.71l-1.739-5.564zM11.106 19.925h6.4l-3.209-10.33-3.191 10.33zM54.507 20.949c-0.096 2.069-0.655 3.904-1.677 5.5-1.024 1.581-2.462 2.81-4.316 3.682-1.841 0.873-3.947 1.308-6.321 1.308-3.913 0-6.993-1.274-9.244-3.825-2.251-2.549-3.375-6.148-3.375-10.799v-1.472c0-2.918 0.506-5.468 1.515-7.648 1.022-2.197 2.487-3.887 4.395-5.073 1.911-1.201 4.119-1.801 6.628-1.801 3.614 0 6.517 0.956 8.713 2.863 2.197 1.897 3.443 4.514 3.744 7.855h-7.159c-0.053-1.813-0.512-3.115-1.37-3.906-0.86-0.789-2.17-1.186-3.927-1.186-1.786 0-3.093 0.668-3.925 2.005-0.832 1.335-1.269 3.469-1.31 6.4v2.108c0 3.177 0.395 5.446 1.186 6.81 0.804 1.365 2.18 2.046 4.13 2.046 1.651 0 2.912-0.388 3.785-1.167 0.875-0.777 1.335-2.010 1.391-3.701h7.138zM80.666 6.795h-8.939v24.235h-7.179v-24.233h-8.774v-5.545h24.892v5.542zM91.362 31.031h-7.157v-29.783h7.157v29.781zM107.908 22.931l5.931-21.679h8.017l-10.020 29.779h-7.857l-9.939-29.783h7.957l5.911 21.681zM142.513 18.411h-11.29v7.098h13.335v5.521h-20.514v-29.775h20.555v5.542h-13.376v6.278h11.29v5.335z"></path>
<path fill="#fff" style="fill: var(--color2, #fff)" d="M148.215 31.010v-29.779h7.834c3.204 0 5.623 0.655 7.26 1.963 1.651 1.297 2.475 3.185 2.475 5.666 0 1.801-0.457 3.294-1.37 4.48s-2.202 1.941-3.866 2.27c1.883 0.225 3.522 1.124 4.697 2.446l0.007 0.008c1.254 1.378 1.882 2.959 1.882 4.745 0 2.539-0.823 4.542-2.475 6.016-1.636 1.457-3.919 2.187-6.852 2.187h-9.591zM149.321 16.305v13.6h8.61c2.522 0 4.501-0.619 5.931-1.86 1.446-1.254 2.167-2.987 2.167-5.195 0-1.882-0.693-3.43-2.084-4.644-1.391-1.227-3.253-1.86-5.585-1.901h-9.039zM149.321 15.2h7.138c2.714 0 4.757-0.518 6.135-1.555 1.376-1.050 2.065-2.671 2.065-4.866 0-4.228-2.788-6.374-8.365-6.443h-6.976v12.864zM194.581 18.349c0 2.577-0.463 4.862-1.391 6.852-0.913 1.978-2.223 3.511-3.925 4.602-1.707 1.077-3.669 1.617-5.89 1.617-3.356 0-6.069-1.195-8.141-3.58-2.074-2.387-3.11-5.604-3.11-9.653v-4.299c0-2.562 0.459-4.841 1.372-6.831 0.926-1.99 2.242-3.524 3.947-4.602 1.717-1.090 3.682-1.636 5.89-1.636 2.223 0 4.188 0.546 5.89 1.636 1.719 1.077 3.042 2.618 3.968 4.623 0.928 1.99 1.391 4.26 1.391 6.81v4.459zM193.478 13.85c0-3.599-0.915-6.483-2.741-8.651-1.828-2.182-4.297-3.273-7.403-3.273-3.070 0-5.517 1.084-7.343 3.251-1.828 2.155-2.741 5.094-2.741 8.815v4.356c0 2.374 0.41 4.474 1.227 6.3 0.832 1.813 2.012 3.211 3.539 4.194 1.527 0.981 3.313 1.472 5.359 1.472 3.108 0 5.568-1.084 7.381-3.251 1.813-2.17 2.72-5.129 2.72-8.877v-4.337zM209.348 14.955l9.613-13.724h1.391l-10.308 14.583 10.697 15.196h-1.37l-10.022-14.336-10.063 14.336h-1.329l10.697-15.196-10.308-14.583h1.391l9.613 13.724z"></path>
</symbol>
<symbol id="icon-1" viewBox="0 0 33 32">
<path  d="M20.5 27.964h-11.939c-1.167-0.003-2.223-0.473-2.992-1.233l0 0c-0.764-0.755-1.237-1.801-1.238-2.959v-11.755c0.005-1.155 0.48-2.198 1.242-2.95l0.001-0.001c0.768-0.757 1.822-1.225 2.986-1.228h3.574c0.178 0 0.348 0.070 0.474 0.194 0.12 0.119 0.195 0.284 0.195 0.467s-0.075 0.348-0.195 0.467l-0 0c-0.126 0.124-0.296 0.194-0.474 0.194h-3.573c-0.795 0.003-1.516 0.323-2.041 0.841l0-0c-0.521 0.514-0.846 1.226-0.851 2.014v11.755c0 0.759 0.304 1.486 0.846 2.024 0.525 0.52 1.247 0.842 2.044 0.845h11.939c0 0 0.001 0 0.001 0 0.4 0 0.782-0.080 1.13-0.225l-0.019 0.007c0.366-0.152 0.679-0.362 0.942-0.622l-0 0c0.263-0.259 0.475-0.568 0.623-0.912l0.007-0.019c0.146-0.348 0.221-0.721 0.221-1.098v-2.354c0-0.175 0.071-0.343 0.196-0.468 0.122-0.12 0.289-0.194 0.473-0.194s0.352 0.074 0.473 0.194l-0-0c0.125 0.124 0.196 0.292 0.196 0.468v2.354c-0.001 1.16-0.477 2.209-1.242 2.963l-0 0c-0.77 0.759-1.828 1.228-2.996 1.228-0.002 0-0.003 0-0.005 0h0zM24.020 12.495c-0.173 0-0.339-0.066-0.464-0.184-0.12-0.114-0.198-0.273-0.205-0.449l-0-0.001c-0.029-0.515-0.195-0.987-0.462-1.385l0.006 0.010c-0.223-0.344-0.509-0.627-0.845-0.839l-0.011-0.007c-0.38-0.246-0.837-0.408-1.327-0.449l-0.011-0.001c-0.184-0.007-0.348-0.088-0.466-0.212l-0-0c-0.11-0.117-0.177-0.276-0.177-0.449 0-0.009 0-0.018 0.001-0.027l-0 0.001c-0-0.004-0-0.009-0-0.014 0-0.17 0.066-0.324 0.173-0.439l-0 0c0.115-0.123 0.273-0.198 0.443-0.208 0.779 0.035 1.496 0.277 2.104 0.671l-0.016-0.010c0.511 0.321 0.932 0.737 1.249 1.227l0.009 0.016c0.388 0.583 0.633 1.291 0.669 2.053l0 0.009c0 0.008 0.001 0.018 0.001 0.027 0 0.174-0.068 0.331-0.178 0.448l0-0c-0.117 0.126-0.281 0.206-0.464 0.212l-0.001 0h-0.027z"></path>
<path  d="M17.823 18.563h-3.306c-0.178 0-0.348-0.070-0.473-0.194-0.121-0.119-0.196-0.284-0.196-0.467v-3.332c0-0.001 0-0.002 0-0.003 0-0.179 0.072-0.341 0.188-0.46l-0 0 6.692-6.611c0.121-0.117 0.286-0.19 0.468-0.19s0.347 0.072 0.469 0.19l-0-0 1.165 1.15c0.118 0.119 0.191 0.282 0.191 0.463s-0.073 0.344-0.191 0.463l0-0c-0.121 0.12-0.288 0.195-0.472 0.195-0.001 0-0.002 0-0.003 0h0c-0.185-0-0.353-0.075-0.475-0.195l0 0-0.683-0.661-6.050 5.937v2.393h2.423l6.063-6.002-0.683-0.674c-0.118-0.119-0.191-0.282-0.191-0.463s0.073-0.344 0.191-0.463l-0 0c0.121-0.121 0.288-0.195 0.473-0.195 0.001 0 0.002 0 0.003 0h-0c0.185 0 0.353 0.075 0.475 0.195l-0-0 1.151 1.137c0.122 0.119 0.197 0.286 0.198 0.469v0c0 0 0 0.001 0 0.001 0 0.184-0.076 0.35-0.197 0.468l-0 0-6.693 6.611c-0.131 0.146-0.32 0.238-0.53 0.238-0.002 0-0.004 0-0.006-0h0z"></path>
<path  d="M24.622 11.9c-0.002 0-0.005 0-0.008 0-0.183 0-0.35-0.070-0.475-0.186l0 0-1.151-1.15c-0.118-0.119-0.191-0.282-0.191-0.463s0.073-0.344 0.191-0.463l-0 0c0.121-0.121 0.288-0.195 0.473-0.195 0.001 0 0.001 0 0.002 0h-0c0.185 0 0.353 0.075 0.475 0.195l0.683 0.674 2.409-2.393-2.409-2.38-2.423 2.38 0.683 0.674c0.118 0.119 0.191 0.282 0.191 0.463s-0.073 0.344-0.191 0.463l0-0c-0.121 0.121-0.288 0.195-0.473 0.195-0.001 0-0.002 0-0.003 0h0c-0.185-0-0.353-0.075-0.475-0.196l0 0-1.151-1.137c-0.123-0.114-0.201-0.277-0.201-0.457 0-0.002 0-0.004 0-0.005v0c-0-0.003-0-0.007-0-0.011 0-0.183 0.077-0.348 0.2-0.465l0-0 3.359-3.305c0.121-0.121 0.288-0.195 0.473-0.195 0.001 0 0.002 0 0.003 0h-0c0.185 0 0.353 0.075 0.475 0.195l-0-0 3.359 3.305c0.119 0.121 0.192 0.287 0.192 0.469s-0.073 0.349-0.192 0.469l0-0-3.359 3.332c-0.126 0.119-0.294 0.186-0.468 0.185z"></path>
</symbol>
<symbol id="icon-2" viewBox="0 0 32 32">
<path  d="M24.371 22.843h-17.091c-2.745 0-4.971-2.225-4.971-4.971v0-9.303c-0-0.016-0-0.034-0-0.053 0-2.748 2.224-4.976 4.97-4.984h17.091c2.742 0.007 4.963 2.228 4.971 4.97v9.37c0 0 0 0 0 0 0 2.745-2.225 4.97-4.97 4.97-0 0-0 0-0 0h0zM7.28 4.861c-2.011 0-3.642 1.63-3.642 3.642v0 9.369c0 2.011 1.63 3.641 3.641 3.641 0 0 0 0 0 0h17.090c0 0 0 0 0 0 2.011 0 3.641-1.63 3.642-3.641v-9.303c0-0.020 0.001-0.043 0.001-0.066 0-2.011-1.63-3.642-3.642-3.642-0 0-0.001 0-0.001 0h-17.090z"></path>
<path  d="M28.676 17.793h-25.704c-0.364-0.007-0.657-0.301-0.664-0.664v-0.001c0-0.367 0.297-0.664 0.664-0.664h25.703c0.367 0 0.665 0.298 0.665 0.665s-0.298 0.665-0.665 0.665v0zM15.807 27.986c-0.367 0-0.664-0.297-0.664-0.664v0-5.143c0-0.367 0.297-0.664 0.664-0.664s0.664 0.297 0.664 0.664v0 5.143c-0 0.367-0.298 0.664-0.664 0.664h-0z"></path>
<path  d="M23.485 27.986h-15.416c-0.367 0-0.664-0.297-0.664-0.664s0.297-0.664 0.664-0.664h15.416c0.357 0.013 0.641 0.306 0.641 0.664s-0.284 0.651-0.64 0.664l-0.001 0z"></path>
</symbol>
<symbol id="icon-3" viewBox="0 0 32 32">
<path d="M21.54 21.405c-0.002 0-0.005 0-0.008 0-0.227 0-0.428-0.115-0.547-0.289l-0.001-0.002c-0.069-0.103-0.111-0.23-0.111-0.367 0-0.235 0.122-0.442 0.307-0.56l0.003-0.002c2.608-1.696 4.308-4.596 4.308-7.893 0-5.183-4.202-9.385-9.385-9.385s-9.385 4.202-9.385 9.385c0 3.297 1.7 6.197 4.272 7.871l0.036 0.022c0.202 0.116 0.335 0.331 0.335 0.576 0 0.366-0.297 0.663-0.663 0.663-0.146 0-0.281-0.047-0.39-0.127l0.002 0.001c-2.977-1.935-4.917-5.245-4.917-9.008 0-5.915 4.795-10.71 10.71-10.71s10.71 4.795 10.71 10.71c0 3.763-1.941 7.073-4.876 8.983l-0.041 0.025c-0.098 0.067-0.218 0.106-0.348 0.106-0.003 0-0.007-0-0.010-0h0.001z"></path>
<path  d="M21.54 26.641h-10.869c-0.363-0.007-0.656-0.3-0.663-0.663v-5.236c0.007-0.363 0.3-0.655 0.662-0.663h0.001c0 0 0 0 0 0 0.366 0 0.663 0.297 0.663 0.663v0 4.573h9.544v-4.573c0-0 0-0 0-0 0-0.366 0.297-0.663 0.663-0.663v0c0.363 0.007 0.655 0.3 0.663 0.662v5.236c-0.007 0.363-0.3 0.656-0.662 0.663h-0.001z"></path>
<path d="M12.632 29.875c-0.366 0-0.663-0.297-0.663-0.663v0-2.333c0.007-0.363 0.3-0.656 0.662-0.663h0.001c0.366 0 0.663 0.297 0.663 0.663v0 2.333c0 0.366-0.297 0.663-0.663 0.663v0zM19.578 29.875c-0.366 0-0.663-0.297-0.663-0.663v0-2.333c0-0 0-0 0-0 0-0.366 0.297-0.663 0.663-0.663v0c0.363 0.007 0.656 0.3 0.663 0.662v2.334c0 0.366-0.297 0.663-0.663 0.663v0zM16.105 26.64c-0.366 0-0.663-0.297-0.663-0.663v0-10.604c0-0.366 0.297-0.663 0.663-0.663s0.663 0.297 0.663 0.663v0 10.604c0 0.366-0.297 0.663-0.663 0.663v0z"></path>
</symbol>
<symbol id="icon-4" viewBox="0 0 32 32">
<path  d="M9.769 27.807c-0.5-0.013-0.958-0.18-1.332-0.455l0.006 0.005c-0.588-0.426-0.966-1.111-0.966-1.883 0-0.275 0.048-0.539 0.136-0.784l-0.005 0.016 1.67-5.143c0.031-0.092 0.048-0.198 0.048-0.309 0-0.336-0.164-0.633-0.417-0.816l-0.003-0.002-4.374-3.181c-0.582-0.429-0.956-1.113-0.956-1.883 0-1.27 1.015-2.303 2.279-2.332l0.003-0h5.409c0.007 0 0.015 0 0.023 0 0.418 0 0.776-0.254 0.929-0.617l0.002-0.007 1.67-5.156c0.289-0.951 1.158-1.631 2.186-1.631 0.010 0 0.020 0 0.029 0h-0.001c0.008-0 0.017-0 0.026-0 1.020 0 1.885 0.666 2.183 1.588l0.005 0.016 1.67 5.183c0.141 0.401 0.514 0.684 0.953 0.689h5.422c1.266 0.029 2.281 1.062 2.281 2.332 0 0.77-0.373 1.453-0.949 1.878l-0.006 0.005-4.374 3.181c-0.256 0.185-0.42 0.482-0.42 0.818 0 0.11 0.018 0.216 0.050 0.316l-0.002-0.007 1.683 5.156c0.079 0.225 0.125 0.485 0.125 0.755 0 0.778-0.381 1.468-0.967 1.892l-0.007 0.005c-0.377 0.286-0.854 0.459-1.372 0.459s-0.995-0.172-1.377-0.463l-4.369-3.177c-0.164-0.117-0.369-0.188-0.59-0.188s-0.426 0.070-0.593 0.19l0.003-0.002-4.387 3.181c-0.352 0.234-0.784 0.373-1.249 0.373-0.027 0-0.054-0-0.080-0.001l0.004 0zM5.845 12.404c-0.008-0-0.018-0-0.028-0-0.435 0-0.803 0.287-0.925 0.683l-0.002 0.007c-0.034 0.096-0.053 0.206-0.053 0.321 0 0.33 0.161 0.623 0.408 0.803l0.003 0.002 4.387 3.181c0.591 0.431 0.971 1.122 0.971 1.901 0 0.268-0.045 0.526-0.128 0.766l0.005-0.017-1.67 5.103c-0.035 0.097-0.056 0.209-0.056 0.326 0 0.329 0.162 0.62 0.411 0.798l0.003 0.002c0.161 0.125 0.367 0.201 0.59 0.201s0.428-0.075 0.592-0.202l-0.002 0.002 4.427-3.181c0.377-0.28 0.852-0.448 1.365-0.448s0.988 0.168 1.372 0.452l-0.006-0.004 4.347 3.221c0.161 0.125 0.367 0.201 0.59 0.201s0.428-0.075 0.592-0.202l-0.002 0.002c0.252-0.18 0.414-0.471 0.414-0.8 0-0.117-0.020-0.229-0.058-0.333l0.002 0.007-1.67-5.143c-0.078-0.224-0.123-0.482-0.123-0.75 0-0.779 0.38-1.47 0.964-1.896l0.007-0.005 4.375-3.181c0.248-0.186 0.406-0.479 0.406-0.809 0-0.55-0.441-0.998-0.989-1.007h-5.422c-1.016-0.013-1.874-0.674-2.182-1.587l-0.005-0.016-1.697-5.156c-0.123-0.402-0.492-0.69-0.927-0.69-0.010 0-0.019 0-0.029 0l0.001-0c-0.008-0-0.018-0-0.028-0-0.435 0-0.803 0.287-0.925 0.683l-0.002 0.007-1.697 5.156c-0.313 0.93-1.171 1.591-2.185 1.604l-0.002 0h-5.421z"></path>
</symbol>
<symbol id="icon-5" viewBox="0 0 32 32">
<path  d="M15.802 28.401c-6.946-0.041-12.56-5.681-12.56-12.633s5.614-12.591 12.556-12.633l0.004-0c0.007-0 0.015-0 0.024-0 0.367 0 0.665 0.298 0.665 0.665s-0.298 0.665-0.665 0.665c-0.008 0-0.017-0-0.025-0l0.001 0c-0.020-0-0.044-0-0.067-0-6.243 0-11.303 5.061-11.303 11.303s5.061 11.303 11.303 11.303c3.148 0 5.995-1.287 8.045-3.363l0.001-0.001c0.123-0.143 0.303-0.233 0.505-0.233 0.367 0 0.664 0.297 0.664 0.664 0 0.198-0.087 0.376-0.225 0.498l-0.001 0.001c-2.268 2.318-5.427 3.757-8.921 3.763h-0.001z"></path>
<path  d="M15.403 20.024c-0.006 0-0.013 0-0.020 0-0.174 0-0.332-0.071-0.445-0.186l-5.319-5.32c-0.121-0.121-0.196-0.287-0.196-0.472s0.075-0.351 0.196-0.472l0-0c0.122-0.118 0.288-0.191 0.472-0.191s0.35 0.073 0.472 0.191l-0-0 4.84 4.853 10.838-10.838c0.122-0.126 0.292-0.205 0.481-0.205 0.369 0 0.668 0.299 0.668 0.668 0 0.189-0.079 0.36-0.205 0.481l-11.303 11.304c-0.119 0.115-0.282 0.186-0.462 0.186-0.006 0-0.012-0-0.018-0l0.001 0z"></path>
</symbol>
<symbol id="icon-6" viewBox="0 0 32 32">
<path  d="M21.736 20.106h-5.554c-0.366 0-0.663-0.297-0.663-0.663s0.297-0.663 0.663-0.663h5.554c0.366 0 0.663 0.297 0.663 0.663s-0.297 0.663-0.663 0.663v0zM25.474 19.695c-0.078 0.019-0.16 0.019-0.238 0-0.253-0.093-0.429-0.331-0.429-0.611 0-0.085 0.017-0.167 0.047-0.242l-0.002 0.004 3.155-8.43c0.098-0.251 0.338-0.425 0.619-0.425 0.082 0 0.161 0.015 0.234 0.043l-0.005-0.002c0.257 0.104 0.434 0.352 0.434 0.64 0 0.079-0.013 0.155-0.038 0.226l0.001-0.005-3.155 8.391c-0.109 0.242-0.346 0.408-0.623 0.411h-0zM11.94 19.947c-0.001 0-0.003 0-0.005 0-0.288 0-0.532-0.187-0.617-0.446l-0.001-0.005-4.162-12.645h-3.976c-0.366 0-0.663-0.297-0.663-0.663 0-0 0-0 0-0v0c0.007-0.363 0.3-0.655 0.662-0.663h4.454c0.287 0.006 0.529 0.19 0.622 0.446l0.002 0.005 4.361 13.096c0.024 0.065 0.038 0.14 0.038 0.218 0 0.287-0.186 0.53-0.444 0.616l-0.005 0.001c-0.084 0.033-0.175 0.047-0.265 0.040z"></path>
<path  d="M13.981 25.912c-2.196 0-3.976-1.78-3.976-3.976s1.78-3.976 3.976-3.976v0c2.196 0 3.976 1.78 3.976 3.976s-1.78 3.976-3.976 3.976v0zM13.981 19.284c-1.464 0-2.651 1.187-2.651 2.651s1.187 2.651 2.651 2.651v0c1.464 0 2.651-1.187 2.651-2.651s-1.187-2.651-2.651-2.651v0zM23.936 25.912c-2.196 0-3.976-1.78-3.976-3.976s1.78-3.976 3.976-3.976v0c2.196 0 3.976 1.78 3.976 3.976s-1.78 3.976-3.976 3.976v0zM23.936 19.284c-0.010-0-0.022-0-0.033-0-1.464 0-2.651 1.187-2.651 2.651s1.187 2.651 2.651 2.651c0.012 0 0.023-0 0.035-0l-0.002 0c1.464 0 2.651-1.187 2.651-2.651s-1.187-2.651-2.651-2.651v0z"></path>
</symbol>
<symbol id="icon-facebook" viewBox="0 0 32 32">
<path d="M12.264 28.666h5.333v-10.68h4.805l0.528-5.306h-5.333v-2.68c0-0 0-0 0-0 0-0.736 0.597-1.333 1.333-1.333 0 0 0 0 0 0h4v-5.333h-4c-3.682 0-6.666 2.985-6.666 6.667v0 2.68h-2.666l-0.528 5.306h3.194v10.68z"></path>
</symbol>
<symbol id="icon-twitter" viewBox="0 0 40 32">
<path d="M35.298 7.928c0.026 0.335 0.026 0.666 0.026 1 0 10.18-7.75 21.911-21.911 21.911-4.361 0-8.414-1.263-11.825-3.458 0.619 0.072 1.216 0.094 1.86 0.094 0.012 0 0.026 0 0.040 0 3.608 0 6.927-1.238 9.555-3.313l-0.033 0.025c-3.357-0.061-6.185-2.258-7.188-5.286l-0.016-0.055c0.476 0.072 0.954 0.119 1.455 0.119 0.691 0 1.384-0.094 2.029-0.262-3.547-0.735-6.174-3.834-6.174-7.546 0-0.004 0-0.008 0-0.012v0.001-0.094c1.003 0.569 2.194 0.925 3.463 0.976l0.015 0.001c-2.082-1.398-3.433-3.743-3.433-6.404 0-0.003 0-0.006 0-0.009v0c0-1.431 0.38-2.741 1.047-3.885 3.817 4.669 9.461 7.721 15.825 8.056l0.054 0.002c-0.118-0.528-0.188-1.137-0.192-1.761l-0-0.003c0-0.002 0-0.004 0-0.006 0-4.25 3.445-7.695 7.695-7.695 0.002 0 0.004 0 0.006 0h-0c0.006-0 0.014-0 0.021-0 2.21 0 4.202 0.934 5.603 2.428l0.004 0.004c1.842-0.363 3.479-1.009 4.953-1.898l-0.068 0.038c-0.597 1.81-1.793 3.285-3.35 4.223l-0.035 0.019c1.643-0.192 3.141-0.612 4.531-1.232l-0.098 0.039c-1.073 1.552-2.351 2.869-3.814 3.951l-0.045 0.032z"></path>
</symbol>
<symbol id="icon-instargam" viewBox="0 0 32 32">
<path  d="M30.001 0.263h-27.368c-0.001 0-0.001 0-0.002 0-0.945 0-1.711 0.766-1.711 1.711v0 27.368c0 0.944 0.765 1.709 1.709 1.709v0h27.368c0.944 0 1.71-0.765 1.711-1.709v-27.369c0 0 0 0 0 0 0-0.944-0.764-1.709-1.708-1.711h-0zM10.053 26.498h-4.569v-14.693h4.569v14.693zM7.768 9.797c-1.462 0-2.648-1.185-2.648-2.648s1.185-2.648 2.648-2.648v0c1.462 0 2.648 1.185 2.648 2.648s-1.185 2.648-2.648 2.648v0zM27.158 26.498h-4.566v-7.146c0-1.704-0.030-3.896-2.375-3.896-2.378 0-2.739 1.858-2.739 3.774v7.267h-4.561v-14.691h4.379v2.008h0.064c0.606-1.155 2.099-2.373 4.317-2.373 4.627 0 5.48 3.042 5.48 7v8.057z"></path>
</symbol>
<symbol id="icon-menu" viewBox="0 0 31 32">
<path  d="M9.143 10.857h13.714v1.714h-13.714v-1.714zM9.143 15.143h13.714v1.714h-13.714v-1.714zM9.143 19.429h13.714v1.714h-13.714v-1.714z"></path>
</symbol>
<symbol id="icon-cross" viewBox="0 0 31 32">
<path  d="M10.545 20.529l9.698-9.698 1.212 1.213-9.697 9.697-1.213-1.212z"></path>
<path  d="M11.757 10.831l9.698 9.698-1.212 1.212-9.697-9.697 1.211-1.213z"></path>
</symbol>
<symbol id="icon-arrow-up" viewBox="0 0 32 32">
<path d="M27.414 12.586l-10-10c-0.781-0.781-2.047-0.781-2.828 0l-10 10c-0.781 0.781-0.781 2.047 0 2.828s2.047 0.781 2.828 0l6.586-6.586v19.172c0 1.105 0.895 2 2 2s2-0.895 2-2v-19.172l6.586 6.586c0.39 0.39 0.902 0.586 1.414 0.586s1.024-0.195 1.414-0.586c0.781-0.781 0.781-2.047 0-2.828z"></path>
</symbol>
</defs>
</svg>
